<?xml version="1.0" standalone="no"?>
<!DOCTYPE svg PUBLIC "-//W3C//DTD SVG 20010904//EN"
 "http://www.w3.org/TR/2001/REC-SVG-20010904/DTD/svg10.dtd">
<svg version="1.0" xmlns="http://www.w3.org/2000/svg"
 width="450.000000pt" height="400.000000pt" viewBox="0 0 450.000000 400.000000"
 preserveAspectRatio="xMidYMid meet">
<metadata>
Created by potrace 1.16, written by Peter Selinger 2001-2019
</metadata>
<g transform="translate(0.000000,400.000000) scale(0.100000,-0.100000)"
fill="#000000" stroke="none">
<path d="M2809 3751 c-51 -10 -100 -42 -127 -82 -26 -38 -26 -68 -2 -269 9
-74 9 -119 -1 -203 -12 -113 -8 -258 11 -341 7 -33 7 -59 0 -84 -16 -58 -12
-95 15 -148 24 -48 24 -49 6 -64 -34 -28 -41 -56 -40 -177 0 -89 4 -129 18
-162 18 -44 18 -45 -6 -105 -46 -112 -63 -201 -63 -325 0 -64 5 -132 10 -151
7 -27 6 -55 -7 -110 -9 -41 -18 -116 -20 -167 -4 -78 0 -110 26 -211 27 -109
29 -126 20 -186 -6 -36 -8 -107 -5 -158 7 -133 7 -129 0 -169 -4 -24 -1 -47 9
-65 10 -21 13 -52 9 -114 -3 -66 0 -94 13 -125 9 -22 25 -67 36 -101 24 -77
85 -149 137 -164 56 -15 119 -12 160 9 20 10 76 30 123 45 109 33 198 91 253
165 22 31 100 114 172 186 136 136 186 208 199 290 13 81 14 83 62 106 167 80
303 383 303 677 0 64 -5 83 -31 135 -17 34 -36 69 -43 79 -10 14 -9 31 7 90
28 106 30 421 3 523 -25 92 -58 168 -96 215 -29 37 -30 42 -24 102 9 86 -13
165 -76 274 -27 49 -50 92 -50 97 0 16 -60 129 -84 157 -13 16 -26 44 -30 62
-9 48 -72 126 -146 180 -36 26 -113 85 -173 130 -164 126 -159 124 -347 147
-91 12 -169 20 -175 20 -5 -1 -26 -4 -46 -8z m129 -105 c12 -12 10 -24 -13
-81 -30 -75 -28 -120 5 -150 26 -23 34 -15 19 18 -17 38 -6 65 57 135 l56 62
56 0 c56 0 59 -2 144 -73 76 -63 87 -75 83 -97 -35 -161 -10 -207 141 -266 94
-36 95 -37 92 -68 l-3 -31 -74 3 c-47 1 -90 10 -119 22 -25 11 -47 18 -49 16
-11 -10 88 -79 149 -102 78 -31 116 -68 143 -138 15 -39 16 -54 7 -98 -10 -48
-9 -57 13 -101 20 -39 25 -64 25 -124 0 -41 -5 -83 -11 -95 -6 -11 -8 -23 -4
-26 12 -12 43 37 65 103 21 62 23 65 48 59 41 -10 47 -20 46 -82 0 -43 -8 -74
-32 -124 -41 -84 -58 -94 -128 -79 -66 15 -82 7 -47 -23 l27 -23 -39 -21 c-22
-11 -78 -43 -124 -71 -46 -28 -86 -49 -88 -47 -3 2 1 14 7 27 8 14 11 54 8
118 -4 78 -11 110 -36 173 -38 92 -40 128 -8 233 14 44 27 92 30 107 6 28 81
88 110 88 9 0 16 4 16 9 0 17 -34 22 -85 11 l-52 -11 -56 55 c-79 77 -97 109
-97 178 0 32 7 76 16 98 25 63 14 107 -45 185 -29 38 -51 77 -51 91 0 26 -15
33 -23 10 -8 -20 4 -60 42 -133 17 -34 31 -72 31 -83 0 -27 -27 -80 -41 -80
-25 0 -87 42 -117 79 -27 33 -39 41 -66 41 -36 0 -86 -32 -86 -56 0 -19 6 -18
40 8 34 25 50 17 80 -41 10 -20 40 -56 67 -81 39 -35 56 -61 77 -117 18 -48
46 -94 86 -142 l60 -70 -10 -48 c-5 -26 -16 -66 -25 -88 -28 -66 -17 -210 25
-310 58 -138 43 -212 -60 -316 -73 -74 -158 -129 -209 -136 -34 -5 -47 -1 -77
22 -42 32 -52 27 -34 -16 15 -36 20 -29 -130 -159 l-63 -54 6 86 c4 60 17 121
43 197 31 94 42 116 76 147 46 41 94 64 136 64 31 0 61 -32 92 -95 14 -29 15
-26 18 64 1 52 -2 115 -7 140 -9 43 -7 51 31 128 47 96 47 128 -2 232 -17 35
-30 70 -30 79 0 8 20 35 45 59 25 23 45 45 45 48 0 3 -18 5 -39 5 -35 0 -43 5
-71 43 -37 52 -180 165 -180 143 0 -8 20 -40 45 -71 86 -106 97 -136 74 -205
-10 -28 -7 -45 21 -131 l33 -98 -36 -80 c-21 -44 -42 -103 -48 -131 -6 -28
-18 -54 -27 -59 -39 -21 -143 -44 -153 -34 -6 6 -13 50 -16 99 l-6 89 38 45
c33 39 37 49 32 86 -2 24 -14 55 -26 70 -25 32 -26 50 -5 115 14 42 27 58 73
91 31 23 58 43 60 45 16 12 -16 10 -76 -5 l-71 -18 -6 44 c-10 76 -6 233 9
316 8 44 27 107 44 140 16 33 28 63 25 65 -2 3 -18 -3 -35 -13 -17 -10 -32
-16 -35 -13 -11 11 -31 163 -24 182 8 22 36 49 60 58 24 10 103 -2 118 -17z
m552 -263 c53 -40 120 -120 120 -144 0 -10 -126 18 -160 36 -35 18 -50 43 -50
82 0 37 10 73 20 73 4 0 36 -21 70 -47z m256 -409 c62 -124 87 -183 91 -221 7
-66 -8 -75 -74 -42 l-48 24 -7 85 c-4 58 -14 106 -32 148 -19 44 -26 79 -26
123 0 34 3 60 6 57 3 -3 43 -82 90 -174z m201 -579 c24 -72 27 -98 31 -255 l4
-175 -46 -143 c-45 -140 -54 -182 -38 -182 5 0 16 16 25 35 9 19 21 35 25 35
5 0 22 -19 38 -41 24 -35 29 -54 32 -116 l4 -74 -43 8 c-66 12 -126 7 -155
-12 -14 -9 -37 -42 -50 -72 -15 -34 -50 -82 -90 -123 -55 -58 -64 -72 -64
-104 0 -52 -13 -71 -60 -90 -37 -15 -42 -14 -75 1 -63 30 -59 -6 11 -92 52
-64 52 -71 -8 -146 -54 -69 -94 -84 -268 -104 -165 -19 -229 -40 -230 -75 0
-3 80 -6 178 -8 97 -2 181 -7 186 -12 5 -5 -1 -45 -13 -94 -12 -47 -21 -108
-20 -136 2 -48 0 -53 -42 -96 -58 -59 -170 -115 -235 -117 l-49 -2 -3 58 -3
57 39 0 c72 0 202 53 181 74 -10 10 -249 -10 -261 -22 -18 -18 -21 -103 -4
-152 11 -33 12 -47 4 -58 -15 -17 -64 -9 -91 16 -25 21 -56 89 -57 120 0 13
-9 36 -19 51 -26 36 -35 74 -27 117 11 58 37 41 64 -44 24 -73 42 -86 42 -31
0 50 15 66 67 74 51 7 191 59 208 77 7 7 -29 8 -116 3 -113 -6 -131 -5 -170
13 -24 10 -53 29 -63 41 -19 21 -19 22 2 44 12 12 79 55 149 96 129 73 213
134 201 146 -7 7 -117 -32 -278 -97 -52 -21 -99 -40 -105 -41 -15 -3 -18 38
-10 191 6 122 9 142 24 142 32 1 97 38 156 89 36 31 77 56 102 63 27 8 38 15
30 20 -23 15 -82 7 -129 -17 -27 -14 -69 -36 -95 -50 -61 -31 -69 -31 -90 1
-13 20 -18 56 -21 160 -7 208 30 331 132 437 63 66 100 80 122 48 25 -36 65
-70 142 -122 41 -28 78 -62 85 -77 15 -37 15 -36 32 -22 21 17 19 79 -4 116
-11 18 -49 53 -85 79 -42 30 -66 54 -66 66 0 21 33 59 52 59 6 0 45 23 87 51
l75 51 78 -22 c43 -13 81 -20 85 -17 3 4 -6 24 -20 45 l-25 39 41 13 c23 6 80
32 126 56 99 52 120 54 260 18 57 -14 106 -23 109 -19 7 6 -13 26 -97 93 -23
18 -41 39 -41 46 0 7 13 42 29 77 16 35 34 84 41 109 11 42 13 43 26 25 8 -11
27 -56 41 -100z m61 -980 c7 -6 -32 -160 -59 -230 -53 -141 -125 -215 -224
-234 -79 -15 -116 13 -101 75 12 46 80 143 108 155 27 11 69 9 117 -6 36 -12
22 14 -27 50 -22 17 -43 36 -46 43 -6 14 37 84 84 135 24 27 28 28 85 22 33
-4 61 -8 63 -10z m-349 -561 c16 -5 9 -54 -18 -117 -30 -71 -211 -280 -228
-263 -2 1 3 16 12 32 9 18 15 56 15 97 l0 69 49 44 c26 24 61 68 77 98 30 57
33 59 93 40z"/>
<path d="M3518 2685 c-16 -9 -33 -32 -44 -61 -15 -39 -16 -53 -6 -90 7 -24 13
-61 13 -82 1 -20 4 -50 8 -67 l7 -30 27 52 c24 47 27 63 27 157 0 59 4 108 10
111 14 9 12 25 -2 25 -7 -1 -25 -7 -40 -15z"/>
<path d="M3683 2049 c-46 -14 -60 -41 -78 -153 -9 -54 -22 -111 -30 -126 -13
-25 -111 -98 -119 -89 -2 2 -16 30 -30 62 -13 31 -29 57 -34 57 -5 0 -7 -22
-4 -49 2 -27 -1 -72 -8 -100 -10 -42 -22 -60 -67 -101 -30 -27 -59 -50 -64
-50 -5 0 -34 14 -64 31 -115 65 -220 46 -294 -55 -77 -102 -75 -121 6 -57 104
82 153 90 229 39 27 -19 56 -50 67 -71 18 -34 19 -46 9 -104 -6 -37 -24 -91
-39 -122 -28 -55 -30 -57 -149 -116 -134 -66 -204 -117 -204 -146 0 -22 8 -24
24 -6 14 17 113 57 241 97 55 17 105 33 111 36 19 8 133 -84 151 -121 21 -43
33 -45 33 -5 0 37 -15 67 -69 139 -34 46 -41 62 -41 102 0 56 23 125 52 156
17 18 32 23 72 23 64 0 173 23 228 48 57 26 134 95 159 143 21 43 37 129 23
129 -5 0 -17 -20 -27 -44 -24 -57 -94 -127 -165 -161 -104 -51 -269 -41 -280
17 -4 19 19 36 198 151 78 50 127 88 138 108 38 68 34 66 96 45 31 -11 59 -17
62 -13 11 11 -37 76 -73 99 -20 13 -41 26 -46 29 -5 3 -5 28 -2 54 7 40 12 49
39 60 17 7 68 16 114 20 45 4 82 11 82 16 0 24 -191 46 -247 28z"/>
<path d="M1315 3456 c-110 -35 -199 -110 -244 -206 -22 -47 -26 -69 -26 -151
0 -93 1 -98 36 -155 95 -153 281 -212 462 -144 73 27 166 112 201 182 23 46
26 64 26 159 l0 107 -40 60 c-49 73 -136 135 -210 151 -66 14 -155 13 -205 -3z"/>
<path d="M2467 3278 c-46 -92 -313 -568 -324 -579 -5 -5 -43 2 -85 15 -117 36
-203 48 -318 45 -157 -6 -227 -48 -246 -148 -6 -30 -3 -38 21 -57 71 -56 265
-89 485 -81 169 5 223 21 283 82 55 55 127 196 162 320 23 81 63 289 80 423
10 76 -13 68 -58 -20z"/>
<path d="M750 2783 c-178 -23 -300 -64 -347 -115 -34 -37 -81 -146 -108 -254
-20 -75 -28 -141 -34 -279 -10 -196 -4 -368 12 -362 8 2 82 199 227 607 26 74
52 136 58 138 5 1 50 -4 99 -12 230 -41 449 -3 519 89 23 31 29 48 29 94 l0
55 -50 20 c-41 16 -79 20 -210 22 -88 1 -176 0 -195 -3z"/>
<path d="M1084 1989 c-68 -16 -124 -98 -124 -182 0 -42 5 -53 41 -92 l40 -44
-225 -680 c-124 -375 -237 -720 -251 -767 -44 -151 -30 -163 49 -41 129 198
575 1004 691 1250 l70 149 65 -6 c36 -3 113 -6 172 -6 l107 0 -30 -87 c-16
-49 -65 -205 -109 -348 -44 -143 -100 -319 -125 -392 -69 -200 -61 -210 49
-64 154 203 284 390 349 502 120 208 200 434 183 523 -19 102 -148 172 -476
257 -99 26 -137 31 -275 34 -88 2 -178 0 -201 -6z"/>
</g>
</svg>
