<svg width="176" height="19" viewBox="0 0 176 19" fill="none" xmlns="http://www.w3.org/2000/svg">
<path d="M15.956 0.516V18H11.876V10.608H4.772V18H0.692V0.516H4.772V7.824H11.876V0.516H15.956ZM23.4283 3.636V7.716H28.9243V10.716H23.4283V14.88H30.6042V18H19.3483V0.516H30.6042V3.636H23.4283ZM38.7941 8.736C39.3461 8.736 39.8141 8.668 40.1981 8.532C40.5901 8.388 40.9101 8.192 41.1581 7.944C41.4061 7.696 41.5861 7.408 41.6981 7.08C41.8101 6.744 41.8661 6.384 41.8661 6C41.8661 5.232 41.6141 4.632 41.1101 4.2C40.6141 3.768 39.8421 3.552 38.7941 3.552H37.1621V8.736H38.7941ZM47.4101 18H43.7381C43.0581 18 42.5701 17.744 42.2741 17.232L39.3701 12.156C39.2341 11.94 39.0821 11.784 38.9141 11.688C38.7461 11.584 38.5061 11.532 38.1941 11.532H37.1621V18H33.1061V0.516H38.7941C40.0581 0.516 41.1341 0.648 42.0221 0.912C42.9181 1.168 43.6461 1.528 44.2061 1.992C44.7741 2.456 45.1861 3.004 45.4421 3.636C45.6981 4.268 45.8261 4.956 45.8261 5.7C45.8261 6.268 45.7501 6.804 45.5981 7.308C45.4461 7.812 45.2221 8.28 44.9261 8.712C44.6301 9.136 44.2621 9.516 43.8221 9.852C43.3901 10.188 42.8901 10.464 42.3221 10.68C42.5861 10.816 42.8341 10.988 43.0661 11.196C43.2981 11.396 43.5061 11.636 43.6901 11.916L47.4101 18ZM65.7348 9.252C65.7348 10.516 65.5148 11.692 65.0748 12.78C64.6428 13.868 64.0308 14.816 63.2388 15.624C62.4468 16.424 61.4908 17.052 60.3708 17.508C59.2588 17.964 58.0228 18.192 56.6628 18.192C55.3028 18.192 54.0628 17.964 52.9428 17.508C51.8228 17.052 50.8628 16.424 50.0628 15.624C49.2708 14.816 48.6548 13.868 48.2148 12.78C47.7828 11.692 47.5668 10.516 47.5668 9.252C47.5668 7.988 47.7828 6.812 48.2148 5.724C48.6548 4.636 49.2708 3.692 50.0628 2.892C50.8628 2.092 51.8228 1.464 52.9428 1.008C54.0628 0.552 55.3028 0.323999 56.6628 0.323999C58.0228 0.323999 59.2588 0.555999 60.3708 1.02C61.4908 1.476 62.4468 2.104 63.2388 2.904C64.0308 3.704 64.6428 4.648 65.0748 5.736C65.5148 6.824 65.7348 7.996 65.7348 9.252ZM61.5828 9.252C61.5828 8.388 61.4708 7.612 61.2468 6.924C61.0228 6.228 60.6988 5.64 60.2748 5.16C59.8588 4.68 59.3468 4.312 58.7388 4.056C58.1308 3.8 57.4388 3.672 56.6628 3.672C55.8788 3.672 55.1788 3.8 54.5628 4.056C53.9548 4.312 53.4388 4.68 53.0148 5.16C52.5988 5.64 52.2788 6.228 52.0548 6.924C51.8308 7.612 51.7188 8.388 51.7188 9.252C51.7188 10.124 51.8308 10.908 52.0548 11.604C52.2788 12.292 52.5988 12.876 53.0148 13.356C53.4388 13.836 53.9548 14.204 54.5628 14.46C55.1788 14.708 55.8788 14.832 56.6628 14.832C57.4388 14.832 58.1308 14.708 58.7388 14.46C59.3468 14.204 59.8588 13.836 60.2748 13.356C60.6988 12.876 61.0228 12.292 61.2468 11.604C61.4708 10.908 61.5828 10.124 61.5828 9.252ZM72.2017 18H68.1217V0.516H72.2017V18ZM87.3588 13.476C87.4548 13.476 87.5508 13.496 87.6468 13.536C87.7428 13.568 87.8348 13.628 87.9228 13.716L89.5308 15.408C88.8268 16.328 87.9428 17.024 86.8788 17.496C85.8228 17.96 84.5708 18.192 83.1228 18.192C81.7948 18.192 80.6028 17.968 79.5468 17.52C78.4988 17.064 77.6068 16.44 76.8708 15.648C76.1428 14.848 75.5828 13.904 75.1908 12.816C74.7988 11.72 74.6028 10.532 74.6028 9.252C74.6028 7.948 74.8148 6.752 75.2388 5.664C75.6628 4.568 76.2588 3.624 77.0268 2.832C77.7948 2.04 78.7148 1.424 79.7868 0.983999C80.8588 0.543999 82.0388 0.323999 83.3268 0.323999C83.9828 0.323999 84.5988 0.383999 85.1748 0.503999C85.7588 0.615999 86.3028 0.775999 86.8068 0.983999C87.3108 1.184 87.7748 1.428 88.1988 1.716C88.6228 2.004 88.9988 2.316 89.3268 2.652L87.9588 4.488C87.8708 4.6 87.7668 4.704 87.6468 4.8C87.5268 4.888 87.3588 4.932 87.1428 4.932C86.9988 4.932 86.8628 4.9 86.7348 4.836C86.6068 4.772 86.4708 4.696 86.3268 4.608C86.1828 4.512 86.0228 4.412 85.8468 4.308C85.6788 4.196 85.4748 4.096 85.2348 4.008C85.0028 3.912 84.7268 3.832 84.4068 3.768C84.0948 3.704 83.7268 3.672 83.3028 3.672C82.6308 3.672 82.0148 3.796 81.4548 4.044C80.9028 4.292 80.4228 4.656 80.0148 5.136C79.6148 5.608 79.3028 6.192 79.0788 6.888C78.8628 7.576 78.7548 8.364 78.7548 9.252C78.7548 10.148 78.8748 10.944 79.1148 11.64C79.3628 12.336 79.6948 12.924 80.1108 13.404C80.5348 13.876 81.0268 14.236 81.5868 14.484C82.1468 14.732 82.7468 14.856 83.3868 14.856C83.7548 14.856 84.0908 14.84 84.3948 14.808C84.6988 14.768 84.9828 14.708 85.2468 14.628C85.5108 14.54 85.7588 14.428 85.9908 14.292C86.2228 14.148 86.4588 13.968 86.6988 13.752C86.7948 13.672 86.8988 13.608 87.0108 13.56C87.1228 13.504 87.2388 13.476 87.3588 13.476ZM116.512 0.516V18H112.936V7.944C112.936 7.712 112.94 7.46 112.948 7.188C112.964 6.916 112.988 6.64 113.02 6.36L108.376 15.348C108.232 15.628 108.036 15.84 107.788 15.984C107.548 16.128 107.272 16.2 106.96 16.2H106.408C106.096 16.2 105.816 16.128 105.568 15.984C105.328 15.84 105.136 15.628 104.992 15.348L100.348 6.336C100.372 6.624 100.392 6.908 100.408 7.188C100.424 7.46 100.432 7.712 100.432 7.944V18H96.8561V0.516H99.9521C100.128 0.516 100.28 0.52 100.408 0.527999C100.544 0.535999 100.664 0.559999 100.768 0.599999C100.872 0.639999 100.964 0.704 101.044 0.792C101.132 0.872 101.216 0.987999 101.296 1.14L105.796 10.008C105.956 10.312 106.108 10.628 106.252 10.956C106.404 11.284 106.548 11.62 106.684 11.964C106.82 11.612 106.96 11.268 107.104 10.932C107.256 10.596 107.416 10.276 107.584 9.972L112.072 1.14C112.152 0.987999 112.232 0.872 112.312 0.792C112.4 0.704 112.496 0.639999 112.6 0.599999C112.704 0.559999 112.82 0.535999 112.948 0.527999C113.084 0.52 113.24 0.516 113.416 0.516H116.512ZM123.975 18H119.895V0.516H123.975V18ZM142.612 0.516V18H140.5C140.188 18 139.924 17.952 139.708 17.856C139.5 17.752 139.292 17.576 139.084 17.328L130.84 6.9C130.872 7.212 130.892 7.516 130.9 7.812C130.916 8.1 130.924 8.372 130.924 8.628V18H127.348V0.516H129.484C129.66 0.516 129.808 0.524 129.928 0.539999C130.048 0.555999 130.156 0.587999 130.252 0.636C130.348 0.676 130.44 0.736 130.528 0.816C130.616 0.895999 130.716 1.004 130.828 1.14L139.144 11.64C139.104 11.304 139.076 10.98 139.06 10.668C139.044 10.348 139.036 10.048 139.036 9.768V0.516H142.612ZM161.869 9.252C161.869 10.516 161.649 11.684 161.209 12.756C160.777 13.82 160.165 14.744 159.373 15.528C158.581 16.304 157.625 16.912 156.505 17.352C155.393 17.784 154.157 18 152.797 18H146.005V0.516H152.797C154.157 0.516 155.393 0.736 156.505 1.176C157.625 1.616 158.581 2.224 159.373 3C160.165 3.776 160.777 4.7 161.209 5.772C161.649 6.836 161.869 7.996 161.869 9.252ZM157.717 9.252C157.717 8.388 157.605 7.608 157.381 6.912C157.157 6.216 156.833 5.628 156.409 5.148C155.993 4.66 155.481 4.288 154.873 4.032C154.265 3.768 153.573 3.636 152.797 3.636H150.085V14.88H152.797C153.573 14.88 154.265 14.752 154.873 14.496C155.481 14.232 155.993 13.86 156.409 13.38C156.833 12.892 157.157 12.3 157.381 11.604C157.605 10.908 157.717 10.124 157.717 9.252ZM173.922 4.068C173.802 4.26 173.674 4.404 173.538 4.5C173.41 4.596 173.242 4.644 173.034 4.644C172.85 4.644 172.65 4.588 172.434 4.476C172.226 4.356 171.986 4.224 171.714 4.08C171.45 3.936 171.146 3.808 170.802 3.696C170.458 3.576 170.066 3.516 169.626 3.516C168.866 3.516 168.298 3.68 167.922 4.008C167.554 4.328 167.37 4.764 167.37 5.316C167.37 5.668 167.482 5.96 167.706 6.192C167.93 6.424 168.222 6.624 168.582 6.792C168.95 6.96 169.366 7.116 169.83 7.26C170.302 7.396 170.782 7.552 171.27 7.728C171.758 7.896 172.234 8.096 172.698 8.328C173.17 8.56 173.586 8.856 173.946 9.216C174.314 9.576 174.61 10.016 174.834 10.536C175.058 11.048 175.17 11.668 175.17 12.396C175.17 13.204 175.03 13.96 174.75 14.664C174.47 15.368 174.062 15.984 173.526 16.512C172.998 17.032 172.342 17.444 171.558 17.748C170.782 18.044 169.898 18.192 168.906 18.192C168.362 18.192 167.806 18.136 167.238 18.024C166.678 17.912 166.134 17.756 165.606 17.556C165.078 17.348 164.582 17.104 164.118 16.824C163.654 16.544 163.25 16.232 162.906 15.888L164.106 13.992C164.202 13.856 164.326 13.744 164.478 13.656C164.638 13.56 164.81 13.512 164.994 13.512C165.234 13.512 165.474 13.588 165.714 13.74C165.962 13.892 166.238 14.06 166.542 14.244C166.854 14.428 167.21 14.596 167.61 14.748C168.01 14.9 168.482 14.976 169.026 14.976C169.762 14.976 170.334 14.816 170.742 14.496C171.15 14.168 171.354 13.652 171.354 12.948C171.354 12.54 171.242 12.208 171.018 11.952C170.794 11.696 170.498 11.484 170.13 11.316C169.77 11.148 169.358 11 168.894 10.872C168.43 10.744 167.954 10.604 167.466 10.452C166.978 10.292 166.502 10.1 166.038 9.876C165.574 9.644 165.158 9.344 164.79 8.976C164.43 8.6 164.138 8.136 163.914 7.584C163.69 7.024 163.578 6.336 163.578 5.52C163.578 4.864 163.71 4.224 163.974 3.6C164.238 2.976 164.626 2.42 165.138 1.932C165.65 1.444 166.278 1.056 167.022 0.767999C167.766 0.471999 168.618 0.323999 169.578 0.323999C170.114 0.323999 170.634 0.368 171.138 0.456C171.65 0.536 172.134 0.659999 172.59 0.827999C173.046 0.987999 173.47 1.184 173.862 1.416C174.262 1.64 174.618 1.896 174.93 2.184L173.922 4.068Z" fill="black"/>
</svg>
